<?xml version="1.0" encoding="iso-8859-1"?>
<!-- Generator: Adobe Illustrator 23.0.3, SVG Export Plug-In . SVG Version: 6.00 Build 0)  -->
<svg version="1.1" xmlns="http://www.w3.org/2000/svg" xmlns:xlink="http://www.w3.org/1999/xlink" x="0px" y="0px"
	 viewBox="0 0 50 50" style="enable-background:new 0 0 50 50;" xml:space="preserve">
<g id="Layer_10" style="display:none;">
</g>
<g id="filled">
</g>
<g id="outlined">
</g>
<g id="rounded">
</g>
<g id="two_x5F_tone">
</g>
<g id="sharp">
</g>
<g id="win10">
</g>
<g id="ios_x5F_out">
	<path style="fill:none;stroke:#ffffff;stroke-width:2;stroke-miterlimit:10;" d="M20,19v8c0,1.657,1.343,3,3,3h11
		c1.657,0,3-1.343,3-3V17c0-2.209-1.791-4-4-4H10c-2.209,0-4,1.791-4,4v23c0,2.209,1.791,4,4,4h23c2.209,0,4-1.791,4-4v-4"/>
	<path style="fill:none;stroke:#ffffff;stroke-width:2;stroke-miterlimit:10;" d="M30,31v-8c0-1.657-1.343-3-3-3H16
		c-1.657,0-3,1.343-3,3v10c0,2.209,1.791,4,4,4h23c2.209,0,4-1.791,4-4V10c0-2.209-1.791-4-4-4H17c-2.209,0-4,1.791-4,4v4"/>
</g>
<g id="ios_x5F_filled">
</g>
<g id="color">
</g>
</svg>